<svg id="Layer_1" enable-background="new 0 0 53 53" height="512" viewBox="0 0 53 53" width="512" xmlns="http://www.w3.org/2000/svg"><g id="_x33_"><path d="m50.5023956 26.5537186-31.1900024 18-16.7899788-9.75-.0200195-8.3499756 31.1799934-18.0100107 16.789978 9.7600107z" fill="#5ec363"/><g><g><g><path d="m2.4976051 26.4519806.0236661 8.3477783 16.788671 9.7565079-.0236644-8.3477783z" fill="#72d561"/><path d="m19.2862778 36.2084885.0236644 8.3477783 31.1876622-18.0062046-.0236664-8.3477783z" fill="#5ec363"/><path d="m2.4976051 26.4519806 16.7886727 9.7565079 31.1876602-18.0062046-16.7886696-9.7565098z" fill="#78e75a"/><path d="m33.7139282 15.983572c-1.0461273.603981-1.0516014 1.5786018-.0122833 2.1825867 1.0334282.600565 2.7160225.6005783 3.7621498-.0034027 1.0401802-.6005497 1.0516014-1.5786018.0181694-2.1791668-1.0393181-.6039858-2.7278557-.6005659-3.7680359-.0000172z" fill="#5ec363"/><path d="m21.5076141 19.4392891c-2.7579727 1.5923176-2.7784767 4.1832848-.0266399 5.7824764 2.7459488 1.5957718 7.2190361 1.5923634 9.9770088.0000477 2.7698612-1.5991802 2.7844181-4.1867142.0384693-5.782486-2.7518367-1.5991935-7.2189789-1.5992164-9.9888382-.0000381z" fill="#5ec363"/><path d="m31.0333309 12.2567129c1.4526882.8442106 3.8106747.8442326 5.2669239.0034657l7.6000519 4.416667c-1.4562492.8407669-1.4639206 2.2066002-.0112305 3.0508099l-21.9449024 12.669897c-1.4526882-.8442116-3.8106747-.8442326-5.2728863-.0000267l-7.60005-4.416666c1.4622116-.8442078 1.4698801-2.210041.0171909-3.0542507zm.424654 12.9651156c2.7698631-1.5991821 2.7844086-4.1867199.0384693-5.782486-2.7518444-1.5991974-7.2189713-1.5992184-9.9888363-.0000343-2.7579613 1.59231-2.7784882 4.1832771-.0266438 5.7824745 2.7459413 1.5957661 7.2190496 1.5923557 9.9770108.0000458m-12.2003727 3.4522819c1.0461349-.6039848 1.0516205-1.5786057.0181885-2.1791706-1.0393162-.6039848-2.7219257-.604002-3.7680607-.0000172-1.0401726.600544-1.0515823 1.5786057-.0122652 2.1825905 1.0334311.600565 2.7219649.5971413 3.7621374-.0034027m18.2061711-10.5113392c1.0401955-.6005554 1.0516205-1.5786057.0181885-2.1791697-1.0393143-.6039848-2.7278671-.6005726-3.7680588-.0000172-1.0461159.6039743-1.0515823 1.5786047-.0122643 2.1825895 1.0334282.6005651 2.7160225.6005727 3.7621346-.0034026" fill="#72d561"/><path d="m15.5077505 26.4949131c-1.0401812.6005497-1.0516024 1.5786018-.0122852 2.1825886 1.0334311.600563 2.7219687.5971451 3.7621508-.0034046 1.0461273-.603981 1.0516033-1.5786018.0181713-2.1791668-1.0393181-.6039849-2.7219105-.6039982-3.7680369-.0000172z" fill="#5ec363"/><g><g><path d="m29.5523167 22.9731007c.1205368-.2081165.1533623-.3943024.0876446-.5804901-.0657158-.1862545-.2081146-.3505135-.4490547-.4929104-.2957611-.1643276-.602417-.2628689-.9310703-.2738323-.3176212-.0219288-.6243439 0-.9310017.0766811-.2519054.0547523-.5586281.1532936-.8981781.262867l-1.2924805-.7448158c.3066578-.1533604.6133823-.2738304.941967-.3614769.0766811-.0219269.1314354-.0437889.1752911-.0657158.0985413-.0547543.1314335-.1314354.12047-.2081165-.0109653-.0766811-.0657177-.1423969-.1423988-.1861858-.1643257-.0986099-.3724403-.1205368-.5805569-.0657177-.4161625.1095066-.8214951.2628689-1.2267628.4709835l-.3395481-.1971512c-.0766811-.0438557-.1752243-.0657177-.2847958-.0657177-.1095066 0-.2080498.021862-.2847309.0657177-.0766811.0437889-.1205368.0985413-.1205368.164259s.0438557.12047.1205368.1643257l.3505135.2081146c-.2300434.1752243-.4053326.3505135-.4819469.5367012-.1095734.1971512-.1095734.3943024-.0219288.5695915.0766811.1861877.2300434.33955.4600201.4709835.2628689.1532955.5586281.2409401.8762493.2628689.3067245.0219288.6133823 0 .9201069-.0657177.2519035-.0547523.5586281-.1423969.8762493-.2519035l1.2486897.722887c-.3505135.1752243-.7338505.3066578-1.1610451.3943024-.0657177.0219288-.1314335.0438557-.1861877.0766811-.098608.0547543-.1533623.1314354-.1423969.2081146 0 .0766811.0547523.1423988.1532936.1971512.0657177.0438576.1533623.0766811.2629356.0876465l.3066578-.0219288c.5257359-.12047 1.0296116-.2956924 1.4896317-.5147724l.3395481.1971512c.0876446.0547523.1862545.0766811.2957611.0766811.1095047-.0109634.1971512-.0328922.2847958-.0766811.0766811-.0438557.12047-.098608.12047-.1643257-.0109634-.0657177-.0437889-.12047-.12047-.164259l-.3505135-.1971512c.2409399-.1752911.416231-.3396168.5147723-.5148392zm-5.0055943-.7119904c-.1533604-.0985432-.2300415-.1971512-.2081146-.3285866.0328255-.12047.12047-.2409401.2628689-.3614101l1.1062927.6462078c-.2519722.0766811-.4709835.1314335-.6462746.1423969-.1971512.0219288-.3723736-.0109634-.5147724-.098608zm3.7569695.7996349-1.0843639-.6353092c.284729-.0986099.5257359-.1533623.7119236-.1752243.1971512-.0219269.33955-.0109634.4600201.0657177.2300414.1314335.4600848.3505135-.0875798.7448158z"/></g></g></g><g><path d="m14.0292978 19.7941532 16.788681 9.7565136c3.6146698.963623 6.2406464-.8287964 8.1242676-4.6905518l-16.7886724-9.7565145z" fill="#ffd06c"/><g><path d="m30.8179703 29.550663.0236664 8.3477783 8.1242752-4.6905517-.0236664-8.3477784z" fill="#ffd06c"/></g><g><path d="m15.4233255 18.9893417 5.3359213-3.0807571 16.7885132 9.7565842c-1.2734375 3.8239746-2.8516693 5.9603882-5.3359222 3.0807495z" fill="#f8f9fe"/></g></g></g><path d="m22.8707886 35.9957237c-1.8110371 0-3.27635 1.4653168-3.27635 3.2763519 0-.9039421-.3679066-1.7253952-.9578342-2.3184967-.5931225-.5899467-1.4145775-.9578552-2.3184986-.9578552.9039211 0 1.7253761-.3679047 2.3184986-.9578552.5899277-.5931015.9578342-1.4145546.9578342-2.3184967 0 .9039421.3679256 1.7253952.9578533 2.3184967.5931015.5899506 1.4145755.9578552 2.3184967.9578552z" fill="#fff"/></g><path d="m32.211834 28.7459469 5.3359222-3.0807572.024128 8.3475094-5.3359223 3.0807572z" fill="#f3f1fc"/></g></svg>